<svg id="Layer_1" data-name="Layer 1" xmlns="http://www.w3.org/2000/svg" viewBox="0 0 818.83 227.01"><defs><style>.cls-1{fill:#fff;}.cls-2{fill:#ff6b6b;}</style></defs><title>Artboard 1</title><path class="cls-1" d="M183.22,122.47a39.16,39.16,0,0,0,8.06-1.15v7.49H192c3.17-4.76,8.07-8.64,17.57-8.64,16.13,0,31.54,11.52,31.54,36.86,0,23.47-13.11,39.74-31.83,39.74-10.65,0-14.54-4.75-17.28-9.64h-.72v33h11.24v2.31h-38.6V220.1h11.24V124.77H163.92v-2.3Zm24.05,72c11.23,0,16.13-10.08,16.13-37.73,0-20.59-2.74-34.27-16-34.27-12.67,0-17.28,12.38-17.28,35.42C190.13,184.68,196.32,194.47,207.27,194.47Z"/><path class="cls-1" d="M308.78,180.07l2,1c-5.33,8.06-12.82,15.69-29.09,15.69-23.76,0-34.84-19.29-34.84-38.44,0-18.15,10.08-38.16,33.26-38.16,19.15,0,31.82,13.68,31.82,36H264.58v1.29c0,26.64,5.33,37,19.73,37C296.11,194.47,304.46,187.27,308.78,180.07Zm-44.2-26.21H296c-.29-25.34-4.32-31.39-15.41-31.39S265,128.66,264.58,153.86Z"/><path class="cls-1" d="M364.08,185.4h-.57c-2.88,6.19-7.92,11.37-20.88,11.37-16.13,0-26.79-7.77-26.79-20.59,0-17.28,19.73-25.2,46.23-25.2V139.61c0-15.12-4.9-17.14-14.26-17.14-7.92,0-13.39,1.15-13.39,4.75,0,2,1.29,2.88,2.45,3.75,1.44,1.15,3.31,2.3,3.31,6.19,0,5.33-3.46,8.49-8.5,8.49-5.47,0-9.21-3.6-9.21-9.93,0-9.94,9.36-15.55,27.93-15.55,14.69,0,27.79,3.74,27.79,23.47v44.93c0,3.16,1.59,5.32,4.61,5.32,4.47,0,7.35-5.32,8.64-8.49l1.73.72c-3.74,8.35-7.49,10.08-13.68,10.08C370,196.2,366,191.88,364.08,185.4Zm-2-6.34V153c-23.76,0-28.52,4.75-28.52,21,0,13.11,2.45,20.45,12.39,20.45C356.74,194.47,362.07,186,362.07,179.06Z"/><path class="cls-1" d="M455.23,181.08c-3.6,5.33-10.08,15.69-28.36,15.69-24.92,0-35.57-19.15-35.57-38,0-17.86,9.65-38.59,36.14-38.59,16.85,0,27.65,8.35,27.65,17.56,0,4.61-2.59,10.37-9.94,10.37-6.33,0-9.5-4.46-9.5-9.36s3.17-6.48,3.17-10.22c0-5-5.62-6.05-10.51-6.05-15.27,0-19.3,10.22-19.3,34.27,0,27.79,5.33,37.73,19.87,37.73,13.1,0,20.45-8.06,24.34-14.4Z"/><path class="cls-1" d="M522.19,180.07l2,1c-5.33,8.06-12.82,15.69-29.09,15.69-23.76,0-34.85-19.29-34.85-38.44,0-18.15,10.08-38.16,33.27-38.16,19.15,0,31.82,13.68,31.82,36H478v1.29c0,26.64,5.33,37,19.73,37C509.52,194.47,517.87,187.27,522.19,180.07ZM478,153.86h31.4c-.29-25.34-4.32-31.39-15.41-31.39S478.42,128.66,478,153.86Z"/><path class="cls-1" d="M604,122.47v2.3h-9.79c-10.51,56.31-27.5,102.24-54,102.24-9.5,0-18.43-6.91-18.43-14.4,0-5.18,3.6-8.06,7.63-8.06,5,0,7.64,3.6,7.64,7.63,0,5.47-5.62,4.75-5.62,8.06,0,2.88,4.46,4.47,9.36,4.47,10.08,0,19-8.21,26.64-21.89l-35.14-78h-9.5v-2.3h35.86v2.3h-9.08L575.91,184c6.19-16.42,11.37-36.87,15.4-59.19h-9.79v-2.3Z"/><path class="cls-1" d="M647.76,185.4h-.57c-2.89,6.19-7.92,11.37-20.88,11.37-16.13,0-26.79-7.77-26.79-20.59,0-17.28,19.73-25.2,46.22-25.2V139.61c0-15.12-4.89-17.14-14.25-17.14-7.92,0-13.39,1.15-13.39,4.75,0,2,1.29,2.88,2.45,3.75,1.44,1.15,3.31,2.3,3.31,6.19,0,5.33-3.46,8.49-8.5,8.49-5.47,0-9.21-3.6-9.21-9.93,0-9.94,9.36-15.55,27.93-15.55,14.69,0,27.79,3.74,27.79,23.47v44.93c0,3.16,1.59,5.32,4.61,5.32,4.46,0,7.34-5.32,8.64-8.49l1.73.72c-3.75,8.35-7.49,10.08-13.68,10.08C653.66,196.2,649.63,191.88,647.76,185.4Zm-2-6.34V153c-23.75,0-28.51,4.75-28.51,21,0,13.11,2.45,20.45,12.39,20.45C640.42,194.47,645.74,186,645.74,179.06Z"/><path class="cls-1" d="M738.77,135.57c0,7.2-4,10.52-9.79,10.52-6.63,0-9.94-4.32-9.94-9.08,0-5.61,4.75-5.76,4.75-10.51,0-2.73-1.87-3.89-4.17-3.89-12.24,0-18.43,20.88-19.15,37.88v31.68h17v2.3H671.67v-2.3h12.67v-67.4H671.67v-2.3H692.4a39.35,39.35,0,0,0,8.07-1.15v18.43h.72c2.44-6.62,6.76-19.58,20.88-19.58C731.86,120.17,738.77,126.36,738.77,135.57Z"/><path class="cls-1" d="M818.83,192.17v2.3H790.75v-8.78H790c-1.87,3.16-5.33,11.08-18,11.08-18.72,0-31.82-14.83-31.82-38.16,0-26.92,17.28-38.44,31.82-38.44,9.36,0,14.55,4.75,17.28,9.79H790V91.37H778.8V89.06h19.3a38.68,38.68,0,0,0,8.06-1.15V192.17Zm-27.65-33.12c0-31.4-8.78-36.58-18.72-36.58-13.24,0-14.54,11.95-14.54,33.26s1.3,38.74,15.84,38.74C783.41,194.47,791.18,187.7,791.18,159.05Z"/><path class="cls-2" d="M170.46,62.1c-2.21-2.34-8.72-5.34-12.35-5.68-6.22-.58-12.11.88-17.74,3.3a80.54,80.54,0,0,0-18.07,11c-3.47,2.76-6.85,5.64-10.1,8.72-2.84,2.72-5.35,5.3-8.1,8.14L103,88.69c-.37-.25-.25-.59-.25-.88a6,6,0,0,1,.09-.79c.16-1.63.46-3.3.5-4.89.25-6.84.46-13.31-3.67-18.74A44.56,44.56,0,0,0,87.45,52.63c-6-3.76-14.86-6.26-21.62-8.35a149.1,149.1,0,0,1-29.18-11.9c-5.72-3-16.44-8.34-19.2-9.8A63.76,63.76,0,0,0,20,30.51a71.13,71.13,0,0,0,14.65,23c4.55,4.88,9.39,9.39,14.4,13.86,4,3.59,8,7.22,11.6,11.18A75.61,75.61,0,0,1,72.34,94.61a37.12,37.12,0,0,1,4,11.19,25.91,25.91,0,0,1-.79,13,20.36,20.36,0,0,1-3.05,5.72,3.33,3.33,0,0,1-.62.67s-.21,0-.29.08c-.51-.38-.34-.92-.34-1.42a25.51,25.51,0,0,0-.79-5.34A32,32,0,0,0,67,110.27a75.68,75.68,0,0,0-8-11.19A243.85,243.85,0,0,0,42,81.26C37.7,77.08,33.27,73.08,28.93,69a91.57,91.57,0,0,1-19.49-26A91.76,91.76,0,0,1,2,22,84.42,84.42,0,0,1,.22,9.8C0,7,0,4.21,0,1.46A2,2,0,0,1,.3,0c.54-.17,1,.25,1.5.5C3.43,1.37,5,2.25,6.6,3.09c4.34,2.21,8.73,4.46,13.19,6.55q16.65,8,33.77,15.15c7.88,3.3,15.9,6.3,24,9.06,4.34,1.46,8.72,2.83,13,4.54a63.12,63.12,0,0,1,15.06,8.44,30,30,0,0,1,7.68,8.55,15.8,15.8,0,0,1,1.92,4.72c.09.37.29.75.46,1.21a9.65,9.65,0,0,0,2-1.46,83.13,83.13,0,0,1,9.89-7.39,64.05,64.05,0,0,1,14.06-6.8,42.52,42.52,0,0,1,17-1.92,39.35,39.35,0,0,1,16.61,5.55A55.35,55.35,0,0,1,190.75,63.1c.87,1.13,1.71,2.34,2.54,3.55a10.57,10.57,0,0,1,.54,1c-.5,0-.87.09-1.16,0a12,12,0,0,0-6.52.79,24.35,24.35,0,0,0-8.8,5.59,57.44,57.44,0,0,0-9,11.35,121.51,121.51,0,0,0-8.43,16.7c-1.33,3.17-2.5,6.43-3.71,9.68a66.09,66.09,0,0,1-11.31,19.41,88.54,88.54,0,0,1-18.45,16.4,116.19,116.19,0,0,1-13.31,7.89A116.14,116.14,0,0,1,99.8,161c-11.31,4-22.87,7.3-34.52,10.18A132.39,132.39,0,0,0,38.45,181a102.88,102.88,0,0,0-22.21,14.61c-1.33,1.16-2.54,2.46-3.84,3.63a8.59,8.59,0,0,1-.91.79,1.19,1.19,0,0,1-.21-1.09A22.64,22.64,0,0,1,13,193a43.36,43.36,0,0,1,7-10.94,70.49,70.49,0,0,1,13.77-11.89,117.15,117.15,0,0,1,17.86-9.85,198.38,198.38,0,0,1,28-9.94,168,168,0,0,0,20.28-7.09A112.79,112.79,0,0,0,122,130.93c6-3.89,14.19-12.44,17.53-19a101.61,101.61,0,0,0,6.6-13.15c2-4.47,3.88-8.93,6.13-13.19a95.53,95.53,0,0,1,11.31-17.32C165.12,66.4,168,63.06,170.46,62.1Z"/></svg>